<svg width="28" height="28" viewBox="0 0 28 28" fill="none" xmlns="http://www.w3.org/2000/svg">
<path d="M10.5 6.41667C10.5 7.38267 9.71602 8.16667 8.75002 8.16667C7.78402 8.16667 7.00002 7.38267 7.00002 6.41667C7.00002 5.45067 7.78402 4.66667 8.75002 4.66667C9.71602 4.66667 10.5 5.45067 10.5 6.41667ZM16.3334 7.58333C16.3334 10.1955 15.0092 12.5813 12.8334 13.9685V22.8935C12.8334 24.1407 12.3469 25.3132 11.466 26.194L10.304 27.356C9.87586 27.7842 9.31236 27.9988 8.75002 27.9988C8.18769 27.9988 7.62536 27.7842 7.19602 27.3572L6.03286 26.194C5.15086 25.3132 4.66552 24.1407 4.66552 22.8935V21.8248C4.66552 21.3582 4.84752 20.9183 5.17769 20.587L6.36886 19.3958L5.41919 18.4462C4.73669 17.7637 4.73669 16.6542 5.41919 15.9717L6.36886 15.022L5.98969 14.644C2.54569 13.2988 0.588023 9.72767 1.31952 6.04217C1.89702 3.13483 4.23036 0.774667 7.12719 0.170333C9.41386 -0.309167 11.7484 0.2485 13.5299 1.69633C15.3114 3.14417 16.3334 5.28967 16.3334 7.58333ZM14 7.58333C14 5.9955 13.2919 4.50917 12.0575 3.50583C10.8045 2.4885 9.22369 2.11633 7.60436 2.4535C5.61169 2.87 4.00636 4.49517 3.60852 6.49717C3.08702 9.12217 4.52319 11.6632 7.02102 12.5358C7.18669 12.5942 7.33719 12.6887 7.46086 12.8123L8.43269 13.7842C9.11519 14.4667 9.11519 15.5762 8.43269 16.2587L7.48302 17.2083L8.43269 18.158C9.11519 18.8405 9.11519 19.95 8.43269 20.6325L6.99886 22.0663V22.8935C6.99886 23.5083 7.24736 24.1103 7.68252 24.5443L8.74886 25.6107L9.81519 24.5443C10.2504 24.1103 10.4989 23.5083 10.4989 22.8935V13.293C10.4989 12.8555 10.7439 12.453 11.1335 12.2535C12.901 11.3505 13.9989 9.55967 13.9989 7.58217L14 7.58333ZM19.8334 9.33333H22.1667C24.0964 9.33333 25.6667 7.763 25.6667 5.83333V4.3435C26.3609 3.93983 26.8334 3.1955 26.8334 2.33333C26.8334 1.04417 25.7892 0 24.5 0C23.2109 0 22.1667 1.04417 22.1667 2.33333C22.1667 3.19433 22.6392 3.93867 23.3334 4.3435V5.83333C23.3334 6.47733 22.8095 7 22.1667 7H19.8334C19.1894 7 18.6667 7.5215 18.6667 8.16667C18.6667 8.81183 19.1894 9.33333 19.8334 9.33333ZM25.6667 23.6565V22.1667C25.6667 20.237 24.0964 18.6667 22.1667 18.6667H16.3334C15.6894 18.6667 15.1667 19.1882 15.1667 19.8333C15.1667 20.4785 15.6894 21 16.3334 21H22.1667C22.8095 21 23.3334 21.5227 23.3334 22.1667V23.6565C22.6392 24.0602 22.1667 24.8045 22.1667 25.6667C22.1667 26.9558 23.2109 28 24.5 28C25.7892 28 26.8334 26.9558 26.8334 25.6667C26.8334 24.8057 26.3609 24.0613 25.6667 23.6565ZM24.5 11.6667C23.639 11.6667 22.8947 12.1392 22.4899 12.8333H17.5C16.856 12.8333 16.3334 13.3548 16.3334 14C16.3334 14.6452 16.856 15.1667 17.5 15.1667H22.4899C22.8935 15.8608 23.6379 16.3333 24.5 16.3333C25.7892 16.3333 26.8334 15.2892 26.8334 14C26.8334 12.7108 25.7892 11.6667 24.5 11.6667Z" fill="#A8FFD7"/>
</svg>
