<svg width="28" height="28" viewBox="0 0 28 28" fill="none" xmlns="http://www.w3.org/2000/svg">
<g clip-path="url(#clip0_77_12)">
<path d="M17.8372 17.5572L19.4822 18.5057L20.6477 16.485L18.9945 15.533C19.145 15.0453 19.2488 14.5378 19.2488 14.0023C19.2488 13.4668 19.145 12.9582 18.9945 12.4705L20.6465 11.5185L19.4822 9.49667L17.836 10.4452C17.1302 9.6845 16.2108 9.13267 15.1655 8.8935V7.00233H12.8322V8.8935C11.7868 9.13267 10.8663 9.6845 10.1617 10.4452L8.5155 9.49667L7.35117 11.5185L9.00317 12.4705C8.85267 12.9582 8.74883 13.4657 8.74883 14.0023C8.74883 14.539 8.85267 15.0465 9.00317 15.533L7.35 16.485L8.5155 18.5057L10.1605 17.5572C10.8663 18.3178 11.7857 18.8708 12.831 19.11V23.6577C12.1368 24.0613 11.6643 24.8057 11.6643 25.6678C11.6643 26.957 12.7085 28.0012 13.9977 28.0012C15.2868 28.0012 16.331 26.957 16.331 25.6678C16.331 24.8068 15.8585 24.0625 15.1643 23.6577V19.11C16.2097 18.8708 17.1302 18.319 17.8348 17.5572H17.8372ZM11.0833 14C11.0833 12.3923 12.3923 11.0833 14 11.0833C15.6077 11.0833 16.9167 12.3923 16.9167 14C16.9167 15.6077 15.6077 16.9167 14 16.9167C12.3923 16.9167 11.0833 15.6088 11.0833 14ZM28 25.6667C28 26.9558 26.9558 28 25.6667 28C24.8057 28 24.0613 27.5275 23.6565 26.8333H18.6667V21H21V24.5H23.6565C24.0602 23.8058 24.8045 23.3333 25.6667 23.3333C26.9558 23.3333 28 24.3775 28 25.6667ZM7 21H9.33333V26.8333H4.3435C3.93983 27.5275 3.1955 28 2.33333 28C1.04417 28 0 26.9558 0 25.6667C0 24.3775 1.04417 23.3333 2.33333 23.3333C3.19433 23.3333 3.93867 23.8058 4.3435 24.5H7V21ZM0 15.75C0 13.797 0.8785 11.9875 2.38467 10.7742C2.34967 10.4463 2.33333 10.1348 2.33333 9.83383C2.33333 4.36567 6.78183 0 12.25 0C16.2657 0 19.8532 2.32633 21.3908 5.9815C25.207 6.71183 28 10.038 28 14C28 17.2492 26.0878 20.0527 23.3333 21.3675V18.6375C24.7415 17.5712 25.6667 15.8982 25.6667 14.0012C25.6667 10.9923 23.4127 8.498 20.4237 8.19817L19.6537 8.08967L19.3737 7.22867C18.2828 4.24433 15.4432 2.3345 12.25 2.3345C8.06867 2.3345 4.66667 5.65367 4.66667 9.835C4.6515 10.402 4.81133 11.263 4.91983 11.886L4.25833 12.3013C3.05317 13.0573 2.33333 14.3477 2.33333 15.7523C2.33333 17.3752 3.29233 18.7682 4.66667 19.4262V21.9205C1.9775 21.1563 0 18.683 0 15.7523L0 15.75Z" fill="#A8FFD7"/>
</g>
<defs>
<clipPath id="clip0_77_12">
<rect width="28" height="28" fill="white"/>
</clipPath>
</defs>
</svg>
