<svg width="28" height="28" viewBox="0 0 28 28" fill="none" xmlns="http://www.w3.org/2000/svg">
<path d="M12.8333 17.5C12.8333 18.1452 12.3107 18.6667 11.6667 18.6667H5.83333C2.61683 18.6667 0 16.0498 0 12.8333V9.33333C0 6.11683 2.61683 3.5 5.83333 3.5H22.1667C25.3832 3.5 28 6.11683 28 9.33333C28 9.9785 27.4785 10.5 26.8333 10.5C26.1882 10.5 25.6667 9.9785 25.6667 9.33333C25.6667 7.40367 24.0963 5.83333 22.1667 5.83333H5.83333C3.90367 5.83333 2.33333 7.40367 2.33333 9.33333V12.8333C2.33333 14.763 3.90367 16.3333 5.83333 16.3333H11.6667C12.3107 16.3333 12.8333 16.8548 12.8333 17.5ZM10.1582 8.5085C9.702 8.05233 8.96467 8.05233 8.5085 8.5085L7.58333 9.43367L6.65817 8.5085C6.202 8.05233 5.46467 8.05233 5.0085 8.5085C4.55233 8.96467 4.55233 9.702 5.0085 10.1582L5.93367 11.0833L5.0085 12.0085C4.55233 12.4647 4.55233 13.202 5.0085 13.6582C5.236 13.8857 5.53467 14 5.83333 14C6.132 14 6.43067 13.8857 6.65817 13.6582L7.58333 12.733L8.5085 13.6582C8.736 13.8857 9.03467 14 9.33333 14C9.632 14 9.93067 13.8857 10.1582 13.6582C10.6143 13.202 10.6143 12.4647 10.1582 12.0085L9.233 11.0833L10.1582 10.1582C10.6143 9.702 10.6143 8.96467 10.1582 8.5085ZM17.1582 10.1582C17.6143 9.702 17.6143 8.96467 17.1582 8.5085C16.702 8.05233 15.9647 8.05233 15.5085 8.5085L14.5833 9.43367L13.6582 8.5085C13.202 8.05233 12.4647 8.05233 12.0085 8.5085C11.5523 8.96467 11.5523 9.702 12.0085 10.1582L12.9337 11.0833L12.0085 12.0085C11.5523 12.4647 11.5523 13.202 12.0085 13.6582C12.236 13.8857 12.5347 14 12.8333 14C13.132 14 13.4307 13.8857 13.6582 13.6582L17.1582 10.1582ZM28 21V23.3333C28 25.907 25.907 28 23.3333 28H18.6667C16.093 28 14 25.907 14 23.3333V21C14 19.2803 14.945 17.7917 16.3333 16.982V15.1667C16.3333 12.593 18.4263 10.5 21 10.5C23.5737 10.5 25.6667 12.593 25.6667 15.1667V16.982C27.055 17.7917 28 19.2803 28 21ZM18.6667 16.3333H23.3333V15.1667C23.3333 13.8798 22.2868 12.8333 21 12.8333C19.7132 12.8333 18.6667 13.8798 18.6667 15.1667V16.3333ZM25.6667 21C25.6667 19.7132 24.6202 18.6667 23.3333 18.6667H18.6667C17.3798 18.6667 16.3333 19.7132 16.3333 21V23.3333C16.3333 24.6202 17.3798 25.6667 18.6667 25.6667H23.3333C24.6202 25.6667 25.6667 24.6202 25.6667 23.3333V21ZM21 20.4167C20.034 20.4167 19.25 21.2007 19.25 22.1667C19.25 23.1327 20.034 23.9167 21 23.9167C21.966 23.9167 22.75 23.1327 22.75 22.1667C22.75 21.2007 21.966 20.4167 21 20.4167Z" fill="#A8FFD7"/>
</svg>
