<svg width="28" height="28" viewBox="0 0 28 28" fill="none" xmlns="http://www.w3.org/2000/svg">
<g clip-path="url(#clip0_77_14)">
<path d="M24.85 16.1933L24.325 15.8899C24.4417 15.2599 24.5 14.6183 24.5 13.9883C24.5 13.3583 24.4417 12.7283 24.325 12.0866L24.85 11.7833C26.5183 10.8266 27.1017 8.67995 26.145 6.99995C25.6783 6.19495 24.92 5.61161 24.0217 5.36661C23.1233 5.12161 22.1783 5.24995 21.3617 5.71661L20.8367 6.01995C19.8567 5.17995 18.725 4.52661 17.5 4.09495V3.48828C17.5 1.56328 15.925 -0.0117188 14 -0.0117188C12.075 -0.0117188 10.5 1.56328 10.5 3.48828V4.09495C9.27499 4.52661 8.14332 5.17995 7.16332 6.01995L6.63832 5.71661C5.83332 5.24995 4.88832 5.13328 3.97832 5.36661C3.07999 5.61161 2.32166 6.19495 1.85499 6.99995C0.898324 8.66828 1.46999 10.8149 3.13832 11.7833L3.66332 12.0866C3.54666 12.7166 3.48832 13.3583 3.48832 13.9883C3.48832 14.6183 3.54666 15.2483 3.66332 15.8899L3.13832 16.1933C1.46999 17.1499 0.886657 19.2966 1.84332 20.9766C2.30999 21.7816 3.06832 22.3649 3.96666 22.6099C4.86499 22.8549 5.80999 22.7266 6.62666 22.2599L7.15166 21.9566C8.13166 22.7966 9.26332 23.4499 10.4883 23.8816V24.4883C10.4883 26.4133 12.0633 27.9883 13.9883 27.9883C15.9133 27.9883 17.4883 26.4133 17.4883 24.4883V23.8816C18.7133 23.4499 19.845 22.7966 20.825 21.9566L21.35 22.2599C22.155 22.7266 23.1 22.8549 24.01 22.6099C24.9083 22.3649 25.6667 21.7816 26.1333 20.9766C27.09 19.3083 26.5183 17.1616 24.85 16.1933ZM21.8633 11.8299C22.0617 12.5533 22.1667 13.2883 22.1667 13.9999C22.1667 14.7116 22.0617 15.4349 21.8633 16.1699C21.7233 16.6833 21.945 17.2199 22.4117 17.4883L23.6833 18.2233C24.2433 18.5499 24.43 19.2616 24.115 19.8216C23.9633 20.0899 23.7067 20.2883 23.4033 20.3699C23.1 20.4516 22.785 20.4166 22.5167 20.2533L21.245 19.5183C20.7783 19.2499 20.2067 19.3316 19.8333 19.7166C18.795 20.7783 17.4883 21.5366 16.0417 21.9099C15.5283 22.0383 15.1667 22.5049 15.1667 23.0416V24.5116C15.1667 25.1533 14.6417 25.6783 14 25.6783C13.3583 25.6783 12.8333 25.1533 12.8333 24.5116V23.0416C12.8333 22.5049 12.4717 22.0499 11.9583 21.9099C10.5117 21.5366 9.20499 20.7783 8.16666 19.7166C7.94499 19.4833 7.64166 19.3666 7.32666 19.3666C7.12832 19.3666 6.92999 19.4133 6.74332 19.5183L5.47166 20.2533C5.20332 20.4049 4.88832 20.4516 4.58499 20.3699C4.28166 20.2883 4.03666 20.0899 3.87332 19.8216C3.55832 19.2616 3.74499 18.5499 4.30499 18.2233L5.57666 17.4883C6.04332 17.2199 6.26499 16.6833 6.12499 16.1699C5.92666 15.4466 5.82166 14.7116 5.82166 13.9999C5.82166 13.2883 5.92666 12.5649 6.12499 11.8299C6.26499 11.3166 6.04332 10.7799 5.57666 10.5116L4.30499 9.77661C3.74499 9.44995 3.55832 8.73828 3.87332 8.17828C4.02499 7.90995 4.28166 7.71161 4.58499 7.62995C4.88832 7.54828 5.20332 7.59495 5.47166 7.74661L6.74332 8.48161C7.20999 8.74995 7.78166 8.66828 8.15499 8.28328C9.19332 7.22161 10.5 6.46328 11.9467 6.08995C12.46 5.96161 12.8217 5.49495 12.8217 4.95828V3.48828C12.8217 2.84661 13.3467 2.32161 13.9883 2.32161C14.63 2.32161 15.155 2.84661 15.155 3.48828V4.95828C15.155 5.49495 15.5167 5.94995 16.03 6.08995C17.4767 6.46328 18.7833 7.22161 19.8217 8.28328C20.195 8.66828 20.7783 8.74995 21.2333 8.48161L22.505 7.74661C22.7733 7.59495 23.0883 7.54828 23.3917 7.62995C23.695 7.71161 23.94 7.90995 24.1033 8.17828C24.4183 8.73828 24.2317 9.44995 23.6717 9.77661L22.4 10.5116C21.9333 10.7799 21.7117 11.3166 21.8517 11.8299H21.8633ZM16.0767 9.56661L14.21 18.8999C14.105 19.4599 13.615 19.8333 13.0667 19.8333C12.9967 19.8333 12.915 19.8333 12.8333 19.8099C12.2033 19.6816 11.795 19.0749 11.9233 18.4333L13.79 9.09995C13.9183 8.46995 14.525 8.06161 15.1667 8.18995C15.7967 8.31828 16.205 8.92495 16.0767 9.56661ZM10.745 12.6583L9.33332 14.0699L10.745 15.4583C11.2 15.9133 11.2 16.6483 10.745 17.1033C10.5117 17.3366 10.22 17.4416 9.91666 17.4416C9.61332 17.4416 9.32166 17.3249 9.08832 17.1033L7.67666 15.6916C6.76666 14.7816 6.76666 13.3116 7.67666 12.4133L9.08832 11.0016C9.54332 10.5466 10.2783 10.5466 10.7333 11.0016C11.1883 11.4566 11.1883 12.1916 10.7333 12.6466L10.745 12.6583ZM20.3233 12.4249C21.2333 13.3349 21.2333 14.8049 20.3233 15.7033L18.9117 17.1149C18.6783 17.3483 18.3867 17.4533 18.0833 17.4533C17.78 17.4533 17.4883 17.3366 17.255 17.1149C16.8 16.6599 16.8 15.9249 17.255 15.4699L18.6667 14.0583L17.255 12.6583C16.8 12.2033 16.8 11.4683 17.255 11.0133C17.71 10.5583 18.445 10.5583 18.9 11.0133L20.3117 12.4249H20.3233Z" fill="#A8FFD7"/>
</g>
<defs>
<clipPath id="clip0_77_14">
<rect width="28" height="28" fill="white"/>
</clipPath>
</defs>
</svg>
