<svg width="28" height="28" viewBox="0 0 28 28" fill="none" xmlns="http://www.w3.org/2000/svg">
<g clip-path="url(#clip0_75_87)">
<path d="M27.9999 13.4165C27.9971 12.6299 27.8167 11.8541 27.472 11.147C27.1274 10.44 26.6275 9.81992 26.0096 9.33314C26.8644 8.65929 27.4876 7.73543 27.7921 6.69045C28.0967 5.64546 28.0675 4.53147 27.7086 3.50387C27.3497 2.47627 26.6791 1.58632 25.7901 0.958163C24.9012 0.330007 23.8384 -0.0050239 22.7499 -0.000192615H5.24994C4.16148 -0.0050239 3.09866 0.330007 2.20974 0.958163C1.32082 1.58632 0.650136 2.47627 0.291248 3.50387C-0.067641 4.53147 -0.0968337 5.64546 0.207742 6.69045C0.512318 7.73543 1.13547 8.65929 1.99027 9.33314C1.37024 9.81797 0.868764 10.4376 0.523874 11.1451C0.178985 11.8526 -0.000256778 12.6294 -0.000256778 13.4165C-0.000256778 14.2036 0.178985 14.9803 0.523874 15.6878C0.868764 16.3953 1.37024 17.015 1.99027 17.4998C1.13547 18.1737 0.512318 19.0975 0.207742 20.1425C-0.0968337 21.1875 -0.067641 22.3015 0.291248 23.3291C0.650136 24.3567 1.32082 25.2466 2.20974 25.8748C3.09866 26.5029 4.16148 26.838 5.24994 26.8331H22.7499C23.8384 26.838 24.9012 26.5029 25.7901 25.8748C26.6791 25.2466 27.3497 24.3567 27.7086 23.3291C28.0675 22.3015 28.0967 21.1875 27.7921 20.1425C27.4876 19.0975 26.8644 18.1737 26.0096 17.4998C26.6275 17.013 27.1274 16.393 27.472 15.6859C27.8167 14.9788 27.9971 14.2031 27.9999 13.4165ZM2.33327 5.24981C2.33327 4.47626 2.64056 3.73439 3.18754 3.18741C3.73453 2.64043 4.47639 2.33314 5.24994 2.33314H5.83327V3.49981C5.83327 3.80923 5.95619 4.10597 6.17498 4.32477C6.39377 4.54356 6.69052 4.66647 6.99994 4.66647C7.30936 4.66647 7.60611 4.54356 7.8249 4.32477C8.04369 4.10597 8.16661 3.80923 8.16661 3.49981V2.33314H10.4999V3.49981C10.4999 3.80923 10.6229 4.10597 10.8416 4.32477C11.0604 4.54356 11.3572 4.66647 11.6666 4.66647C11.976 4.66647 12.2728 4.54356 12.4916 4.32477C12.7104 4.10597 12.8333 3.80923 12.8333 3.49981V2.33314H22.7499C23.5235 2.33314 24.2654 2.64043 24.8123 3.18741C25.3593 3.73439 25.6666 4.47626 25.6666 5.24981C25.6666 6.02336 25.3593 6.76522 24.8123 7.3122C24.2654 7.85918 23.5235 8.16647 22.7499 8.16647H5.24994C4.47639 8.16647 3.73453 7.85918 3.18754 7.3122C2.64056 6.76522 2.33327 6.02336 2.33327 5.24981ZM25.6666 21.5831C25.6666 22.3567 25.3593 23.0986 24.8123 23.6455C24.2654 24.1925 23.5235 24.4998 22.7499 24.4998H5.24994C4.47639 24.4998 3.73453 24.1925 3.18754 23.6455C2.64056 23.0986 2.33327 22.3567 2.33327 21.5831C2.33327 20.8096 2.64056 20.0677 3.18754 19.5207C3.73453 18.9738 4.47639 18.6665 5.24994 18.6665H5.83327V19.8331C5.83327 20.1426 5.95619 20.4393 6.17498 20.6581C6.39377 20.8769 6.69052 20.9998 6.99994 20.9998C7.30936 20.9998 7.60611 20.8769 7.8249 20.6581C8.04369 20.4393 8.16661 20.1426 8.16661 19.8331V18.6665H10.4999V19.8331C10.4999 20.1426 10.6229 20.4393 10.8416 20.6581C11.0604 20.8769 11.3572 20.9998 11.6666 20.9998C11.976 20.9998 12.2728 20.8769 12.4916 20.6581C12.7104 20.4393 12.8333 20.1426 12.8333 19.8331V18.6665H22.7499C23.5235 18.6665 24.2654 18.9738 24.8123 19.5207C25.3593 20.0677 25.6666 20.8096 25.6666 21.5831ZM5.24994 16.3331C4.47639 16.3331 3.73453 16.0258 3.18754 15.4789C2.64056 14.9319 2.33327 14.19 2.33327 13.4165C2.33327 12.6429 2.64056 11.9011 3.18754 11.3541C3.73453 10.8071 4.47639 10.4998 5.24994 10.4998H5.83327V11.6665C5.83327 11.9759 5.95619 12.2726 6.17498 12.4914C6.39377 12.7102 6.69052 12.8331 6.99994 12.8331C7.30936 12.8331 7.60611 12.7102 7.8249 12.4914C8.04369 12.2726 8.16661 11.9759 8.16661 11.6665V10.4998H10.4999V11.6665C10.4999 11.9759 10.6229 12.2726 10.8416 12.4914C11.0604 12.7102 11.3572 12.8331 11.6666 12.8331C11.976 12.8331 12.2728 12.7102 12.4916 12.4914C12.7104 12.2726 12.8333 11.9759 12.8333 11.6665V10.4998H22.7499C23.5235 10.4998 24.2654 10.8071 24.8123 11.3541C25.3593 11.9011 25.6666 12.6429 25.6666 13.4165C25.6666 14.19 25.3593 14.9319 24.8123 15.4789C24.2654 16.0258 23.5235 16.3331 22.7499 16.3331H5.24994Z" fill="#A8FFD7"/>
</g>
<defs>
<clipPath id="clip0_75_87">
<rect width="28" height="28" fill="white"/>
</clipPath>
</defs>
</svg>
