<svg width="28" height="28" viewBox="0 0 28 28" fill="none" xmlns="http://www.w3.org/2000/svg">
<g clip-path="url(#clip0_51_9)">
<path d="M26.8333 12.8333H24.5V10.4999C24.5 10.1905 24.3771 9.89375 24.1583 9.67496C23.9395 9.45617 23.6428 9.33325 23.3333 9.33325C23.0239 9.33325 22.7272 9.45617 22.5084 9.67496C22.2896 9.89375 22.1667 10.1905 22.1667 10.4999V12.8333H19.8333C19.5239 12.8333 19.2272 12.9562 19.0084 13.175C18.7896 13.3938 18.6667 13.6905 18.6667 13.9999C18.6667 14.3093 18.7896 14.6061 19.0084 14.8249C19.2272 15.0437 19.5239 15.1666 19.8333 15.1666H22.1667V17.4999C22.1667 17.8093 22.2896 18.1061 22.5084 18.3249C22.7272 18.5437 23.0239 18.6666 23.3333 18.6666C23.6428 18.6666 23.9395 18.5437 24.1583 18.3249C24.3771 18.1061 24.5 17.8093 24.5 17.4999V15.1666H26.8333C27.1428 15.1666 27.4395 15.0437 27.6583 14.8249C27.8771 14.6061 28 14.3093 28 13.9999C28 13.6905 27.8771 13.3938 27.6583 13.175C27.4395 12.9562 27.1428 12.8333 26.8333 12.8333Z" fill="#A8FFD7"/>
<path d="M10.5 14C11.8845 14 13.2378 13.5895 14.389 12.8203C15.5401 12.0511 16.4373 10.9579 16.9672 9.67879C17.497 8.39971 17.6356 6.99224 17.3655 5.63437C17.0954 4.2765 16.4287 3.02922 15.4497 2.05026C14.4708 1.07129 13.2235 0.404603 11.8656 0.134506C10.5078 -0.13559 9.1003 0.003033 7.82122 0.532846C6.54213 1.06266 5.44888 1.95987 4.67971 3.11101C3.91054 4.26216 3.5 5.61553 3.5 7C3.50185 8.85595 4.23995 10.6354 5.5523 11.9477C6.86465 13.2601 8.64405 13.9982 10.5 14ZM10.5 2.33334C11.423 2.33334 12.3252 2.60703 13.0927 3.11981C13.8601 3.63259 14.4582 4.36143 14.8114 5.21415C15.1646 6.06687 15.2571 7.00518 15.077 7.91043C14.8969 8.81567 14.4525 9.64719 13.7998 10.2998C13.1472 10.9525 12.3157 11.3969 11.4104 11.577C10.5052 11.7571 9.56687 11.6647 8.71414 11.3114C7.86142 10.9582 7.13259 10.3601 6.61981 9.59266C6.10703 8.82524 5.83333 7.92298 5.83333 7C5.83333 5.76233 6.325 4.57534 7.20017 3.70017C8.07534 2.825 9.26232 2.33334 10.5 2.33334Z" fill="#A8FFD7"/>
<path d="M10.5 16.3333C7.71617 16.3363 5.04725 17.4436 3.07879 19.412C1.11033 21.3805 0.003088 24.0494 0 26.8333C0 27.1427 0.122916 27.4394 0.341709 27.6582C0.560501 27.877 0.857247 27.9999 1.16667 27.9999C1.47609 27.9999 1.77283 27.877 1.99162 27.6582C2.21042 27.4394 2.33333 27.1427 2.33333 26.8333C2.33333 24.6673 3.19375 22.5901 4.72529 21.0585C6.25684 19.527 8.33407 18.6666 10.5 18.6666C12.6659 18.6666 14.7432 19.527 16.2747 21.0585C17.8063 22.5901 18.6667 24.6673 18.6667 26.8333C18.6667 27.1427 18.7896 27.4394 19.0084 27.6582C19.2272 27.877 19.5239 27.9999 19.8333 27.9999C20.1428 27.9999 20.4395 27.877 20.6583 27.6582C20.8771 27.4394 21 27.1427 21 26.8333C20.9969 24.0494 19.8897 21.3805 17.9212 19.412C15.9527 17.4436 13.2838 16.3363 10.5 16.3333Z" fill="#A8FFD7"/>
</g>
<defs>
<clipPath id="clip0_51_9">
<rect width="28" height="28" fill="white"/>
</clipPath>
</defs>
</svg>
